<svg id="svg" xmlns="http://www.w3.org/2000/svg" xmlns:xlink="http://www.w3.org/1999/xlink" width="400" height="136.66666666666666" viewBox="0, 0, 400,136.66666666666666"><g id="svgg"><path id="path0" d="M104.752 19.955 C 96.135 23.013,76.744 40.151,61.059 58.575 L 59.339 60.594 49.633 60.742 C 44.295 60.823,34.508 60.889,27.885 60.889 C 10.753 60.889,4.917 61.495,4.333 63.336 C 4.020 64.319,4.636 64.556,7.508 64.556 C 10.800 64.556,11.725 64.375,11.819 63.715 C 12.034 62.202,29.226 61.604,52.054 62.316 L 57.774 62.495 56.762 63.747 C 47.542 75.160,43.104 82.916,43.392 87.115 C 43.686 91.398,45.408 92.717,45.202 88.500 L 45.074 85.889 45.870 84.261 C 47.609 80.702,55.857 69.913,61.481 63.840 L 62.556 62.680 73.778 62.632 C 83.973 62.588,85.112 62.620,86.222 62.976 C 88.496 63.706,89.436 63.261,87.955 62.155 C 86.660 61.188,85.168 61.056,74.377 60.950 C 68.778 60.895,64.228 60.769,64.266 60.668 C 64.601 59.765,80.977 42.544,86.795 36.975 C 99.500 24.816,105.235 20.886,106.648 23.375 C 108.550 26.726,94.374 56.236,81.085 76.588 C 71.383 91.449,56.300 115.525,54.700 118.705 C 52.884 122.317,52.821 124.324,54.469 126.112 C 55.316 127.031,57.482 128.601,57.649 128.417 C 57.692 128.371,58.197 127.392,58.773 126.242 C 61.180 121.427,63.343 117.615,66.220 113.111 C 83.345 86.311,91.746 71.639,101.845 50.889 C 108.957 36.278,110.666 31.206,110.678 24.667 C 110.688 19.600,109.166 18.389,104.752 19.955 M195.444 21.580 C 166.538 23.753,144.721 35.528,140.117 51.442 C 138.434 57.260,138.314 66.753,139.878 70.494 C 140.633 72.303,140.803 71.874,140.294 69.444 C 138.356 60.201,141.318 49.038,147.628 41.806 C 161.664 25.717,204.140 18.681,225.533 28.901 C 242.041 36.786,243.340 52.783,228.630 67.030 L 227.222 68.393 223.444 68.517 C 217.276 68.720,210.129 69.804,202.826 71.644 C 200.722 72.174,198.972 72.585,198.938 72.557 C 198.797 72.441,207.535 61.431,213.729 53.919 C 217.831 48.944,217.762 49.128,216.162 47.467 C 214.588 45.832,212.672 45.614,211.056 46.885 C 209.697 47.954,198.451 62.897,192.578 71.437 L 189.527 75.874 186.924 77.121 C 181.449 79.744,178.873 82.038,178.897 84.269 C 178.911 85.569,180.127 86.908,181.583 87.228 C 181.935 87.305,182.222 87.386,182.222 87.407 C 182.222 87.427,181.491 88.894,180.597 90.667 C 175.537 100.706,175.284 109.776,179.918 115.073 C 181.211 116.551,181.380 116.520,180.875 114.901 C 178.579 107.524,180.988 97.683,187.371 88.360 C 187.453 88.240,188.703 88.066,190.149 87.972 C 202.852 87.147,223.707 78.753,232.093 71.089 L 233.343 69.946 236.060 70.333 C 238.551 70.686,243.772 71.833,244.256 72.132 C 244.368 72.201,244.143 72.618,243.757 73.058 C 242.043 75.010,241.235 78.186,242.167 79.308 C 243.146 80.487,244.580 79.937,248.278 76.965 C 249.103 76.301,249.778 75.857,249.778 75.977 C 249.778 76.098,249.692 76.249,249.587 76.314 C 249.303 76.490,246.506 81.133,246.082 82.133 C 244.205 86.565,246.939 85.975,253.050 80.631 C 255.003 78.923,255.383 78.677,255.757 78.878 C 256.631 79.346,257.133 79.097,259.503 77.018 C 260.815 75.867,262.163 74.711,262.497 74.449 L 263.105 73.972 262.442 75.375 C 260.580 79.311,262.696 79.798,267.620 76.565 C 268.109 76.244,268.111 76.247,268.038 77.520 C 267.847 80.871,269.856 80.698,274.500 76.965 C 275.325 76.301,276.000 75.857,276.000 75.977 C 276.000 76.098,275.914 76.249,275.809 76.314 C 275.141 76.727,272.099 82.302,271.772 83.714 C 271.200 86.180,274.189 85.112,278.470 81.321 L 279.941 80.019 280.453 80.565 C 281.580 81.764,282.852 81.144,290.000 75.912 C 294.342 72.733,295.441 72.034,295.693 72.286 C 295.910 72.502,293.420 76.183,289.901 80.849 L 286.923 84.798 282.406 85.062 C 272.232 85.659,261.966 87.377,256.960 89.321 C 245.394 93.812,241.614 105.946,250.429 110.286 C 258.014 114.020,274.596 104.665,288.566 88.770 L 291.354 85.598 293.955 85.410 C 299.634 85.000,307.111 85.164,308.174 85.722 C 309.908 86.634,313.333 86.304,313.333 85.225 C 313.333 84.831,312.761 84.657,310.466 84.352 L 308.599 84.104 309.540 83.481 C 310.057 83.139,311.581 81.904,312.925 80.736 C 314.727 79.172,315.435 78.679,315.618 78.863 C 316.543 79.788,317.505 79.247,320.652 76.030 C 324.287 72.315,324.607 72.122,326.877 72.288 C 328.633 72.417,330.524 72.026,329.692 71.707 C 329.475 71.624,329.047 71.619,328.740 71.696 C 328.430 71.774,327.599 71.659,326.869 71.438 C 325.264 70.952,324.368 71.154,322.796 72.354 L 321.748 73.155 322.540 72.116 C 323.566 70.773,323.380 70.204,321.708 69.570 C 320.527 69.123,317.980 72.001,315.919 76.111 C 315.203 77.539,313.264 79.356,310.344 81.336 L 309.244 82.083 309.984 80.764 C 310.391 80.038,311.662 78.063,312.807 76.375 C 314.876 73.323,315.141 72.664,314.659 71.763 C 314.211 70.926,313.375 71.230,311.864 72.778 C 310.211 74.472,310.145 74.489,309.566 73.354 C 307.572 69.444,301.779 72.675,301.778 77.698 C 301.777 80.849,303.718 80.630,308.278 76.965 C 309.677 75.840,310.185 75.611,309.471 76.427 C 308.756 77.244,306.038 82.037,305.765 82.961 L 305.468 83.967 303.679 84.085 C 301.635 84.219,292.354 84.621,292.294 84.578 C 292.272 84.563,293.350 83.152,294.690 81.442 C 300.108 74.529,300.857 72.944,299.819 70.596 C 298.790 68.271,297.238 68.877,290.004 74.430 C 285.502 77.885,285.549 77.857,286.415 76.598 C 287.683 74.755,289.756 72.250,290.216 72.003 C 291.515 71.308,288.925 69.719,287.291 70.209 C 285.987 70.599,282.776 74.168,280.852 77.366 C 280.115 78.591,278.787 79.821,276.567 81.333 L 275.466 82.083 276.207 80.764 C 276.614 80.038,277.884 78.063,279.029 76.375 C 281.099 73.323,281.363 72.664,280.881 71.763 C 280.433 70.926,279.597 71.230,278.087 72.778 C 276.434 74.472,276.367 74.489,275.788 73.354 C 274.387 70.608,271.221 70.972,269.213 74.110 C 268.623 75.033,268.097 75.495,266.713 76.306 C 264.374 77.677,264.281 77.621,265.560 75.611 C 268.137 71.561,266.318 70.339,262.187 73.344 C 260.468 74.594,260.398 74.589,261.343 73.285 C 262.192 72.113,262.138 71.512,261.167 71.314 C 259.308 70.936,259.063 71.171,255.667 76.590 C 254.970 77.701,252.818 79.636,250.569 81.172 L 249.249 82.074 249.986 80.759 C 250.391 80.036,251.660 78.070,252.806 76.389 C 254.885 73.339,255.149 72.680,254.659 71.763 C 254.211 70.926,253.375 71.230,251.864 72.778 C 250.211 74.472,250.145 74.489,249.566 73.354 C 248.795 71.843,248.135 71.486,246.376 71.630 C 245.026 71.741,244.585 71.661,242.265 70.889 C 240.836 70.413,238.495 69.804,237.062 69.536 L 234.457 69.049 236.124 67.277 C 245.951 56.830,248.398 47.618,244.131 37.118 C 239.750 26.336,219.242 19.790,195.444 21.580 M167.048 60.669 C 166.011 61.484,159.990 69.734,158.847 71.905 L 157.728 74.030 157.204 73.539 C 155.967 72.376,153.564 72.827,151.556 74.599 C 150.507 75.524,147.601 77.333,147.164 77.333 C 147.024 77.333,147.402 76.558,148.005 75.611 C 150.581 71.561,148.763 70.339,144.631 73.344 C 142.915 74.592,142.843 74.588,143.778 73.298 C 144.900 71.749,144.677 71.282,142.819 71.282 C 141.458 71.282,141.249 71.487,139.233 74.816 C 138.506 76.017,137.496 77.370,136.990 77.821 C 135.594 79.068,133.791 80.499,132.567 81.333 L 131.466 82.083 132.207 80.764 C 132.614 80.038,133.884 78.063,135.029 76.375 C 137.099 73.323,137.363 72.664,136.881 71.763 C 136.433 70.926,135.597 71.230,134.087 72.778 C 132.434 74.472,132.367 74.489,131.788 73.354 C 130.365 70.564,127.128 70.988,125.173 74.220 C 124.606 75.157,124.120 75.604,122.840 76.366 C 120.632 77.680,120.518 77.598,121.782 75.611 C 124.359 71.561,122.540 70.339,118.409 73.344 C 116.693 74.592,116.621 74.588,117.556 73.298 C 118.677 71.749,118.455 71.282,116.597 71.282 C 115.235 71.282,115.027 71.487,113.011 74.816 C 112.283 76.017,111.274 77.370,110.768 77.821 C 109.371 79.068,107.569 80.499,106.344 81.333 L 105.244 82.083 105.984 80.764 C 106.390 80.038,107.660 78.070,108.806 76.389 C 110.885 73.339,111.149 72.680,110.659 71.763 C 110.211 70.926,109.375 71.230,107.864 72.778 C 106.211 74.472,106.145 74.489,105.566 73.354 C 103.572 69.444,97.779 72.675,97.778 77.698 C 97.777 80.849,99.718 80.630,104.278 76.965 C 105.103 76.301,105.778 75.857,105.778 75.977 C 105.778 76.098,105.692 76.249,105.587 76.314 C 105.303 76.490,102.506 81.133,102.082 82.133 C 100.202 86.571,102.939 85.976,109.070 80.613 C 111.198 78.753,111.402 78.627,111.914 78.860 C 112.922 79.319,113.322 79.126,115.725 77.018 C 117.037 75.867,118.385 74.711,118.719 74.449 L 119.328 73.972 118.664 75.375 C 116.967 78.962,118.455 79.730,122.500 77.354 L 124.000 76.473 124.000 77.656 C 124.000 80.852,125.918 80.648,130.500 76.965 C 131.325 76.301,132.000 75.857,132.000 75.977 C 132.000 76.098,131.914 76.249,131.809 76.314 C 131.525 76.490,128.728 81.133,128.305 82.133 C 126.424 86.571,129.161 85.976,135.292 80.613 C 137.420 78.753,137.624 78.627,138.136 78.860 C 139.144 79.319,139.544 79.126,141.947 77.018 C 143.260 75.867,144.607 74.711,144.942 74.449 L 145.550 73.972 144.886 75.375 C 143.189 78.962,144.677 79.730,148.722 77.354 L 150.222 76.473 150.222 77.192 C 150.222 78.638,151.194 78.797,153.987 77.809 L 155.784 77.173 155.194 78.197 C 154.869 78.761,154.171 79.835,153.643 80.584 C 153.044 81.434,152.505 82.560,152.209 83.584 C 151.412 86.336,151.414 86.222,152.162 86.222 C 153.008 86.222,152.910 86.345,156.990 80.245 C 162.703 71.704,169.051 63.730,171.156 62.450 L 171.774 62.074 171.276 61.616 C 169.757 60.219,168.093 59.847,167.048 60.669 M370.159 60.669 C 369.122 61.484,363.101 69.734,361.958 71.905 L 360.839 74.030 360.340 73.562 C 358.427 71.764,353.971 73.917,353.353 76.938 C 353.195 77.713,351.352 79.423,348.791 81.172 L 347.472 82.074 348.209 80.759 C 348.615 80.036,349.884 78.063,351.029 76.375 C 353.099 73.323,353.363 72.664,352.881 71.763 C 352.433 70.926,351.597 71.230,350.087 72.778 C 348.434 74.472,348.367 74.489,347.788 73.354 C 346.453 70.736,343.281 70.962,341.397 73.810 C 340.898 74.563,339.912 75.333,339.445 75.333 C 339.373 75.333,339.379 74.982,339.460 74.553 C 339.780 72.843,338.920 72.718,337.199 74.223 C 335.603 75.620,335.554 75.556,336.705 73.569 C 338.243 70.912,336.863 70.091,334.501 72.257 C 331.622 74.898,331.302 74.966,333.627 72.441 C 335.087 70.856,334.851 70.105,332.944 70.265 C 331.205 70.411,326.417 77.217,327.378 78.178 C 328.144 78.944,328.893 78.560,332.136 75.735 C 334.808 73.408,334.767 73.422,333.925 75.121 C 332.809 77.373,334.019 77.795,336.406 75.988 C 337.652 75.045,338.000 75.026,338.000 75.902 C 338.000 76.588,338.692 76.630,339.713 76.008 L 340.427 75.573 340.213 76.134 C 339.860 77.064,339.955 78.786,340.389 79.308 C 341.368 80.487,342.802 79.937,346.500 76.965 C 347.325 76.301,348.000 75.857,348.000 75.977 C 348.000 76.098,347.914 76.249,347.809 76.314 C 347.525 76.490,344.728 81.133,344.305 82.133 C 342.412 86.599,345.216 85.956,351.420 80.500 C 353.409 78.751,353.873 78.444,354.529 78.444 C 354.954 78.444,356.110 78.158,357.098 77.809 L 358.895 77.173 358.305 78.197 C 357.980 78.761,357.282 79.835,356.755 80.584 C 356.155 81.434,355.616 82.560,355.320 83.584 C 354.523 86.336,354.525 86.222,355.273 86.222 C 356.120 86.222,356.021 86.345,360.101 80.245 C 365.814 71.704,372.162 63.730,374.267 62.450 L 374.885 62.074 374.387 61.616 C 372.869 60.219,371.204 59.847,370.159 60.669 M225.222 70.108 C 216.030 77.692,202.370 83.958,191.042 85.785 C 188.761 86.153,188.750 86.268,191.352 82.630 C 196.228 75.814,194.912 76.849,201.444 74.691 C 210.982 71.539,219.300 69.711,224.667 69.586 L 225.889 69.558 225.222 70.108 M381.746 71.056 C 379.888 73.119,377.333 76.809,377.333 77.429 C 377.333 77.801,375.085 79.748,373.014 81.168 L 371.694 82.074 372.431 80.759 C 372.837 80.036,374.106 78.063,375.251 76.375 C 377.321 73.323,377.586 72.664,377.103 71.763 C 376.655 70.926,375.819 71.230,374.309 72.778 C 372.656 74.472,372.589 74.489,372.011 73.354 C 370.016 69.444,364.223 72.675,364.222 77.698 C 364.222 80.849,366.163 80.630,370.722 76.965 C 371.547 76.301,372.222 75.857,372.222 75.977 C 372.222 76.098,372.136 76.249,372.032 76.314 C 371.747 76.490,368.951 81.133,368.527 82.133 C 366.634 86.599,369.438 85.956,375.642 80.500 C 377.157 79.168,378.162 78.444,378.496 78.444 C 379.157 78.444,379.622 78.118,382.358 75.735 C 385.030 73.408,384.989 73.422,384.147 75.121 C 383.031 77.373,384.241 77.795,386.629 75.988 C 387.874 75.045,388.222 75.026,388.222 75.902 C 388.222 76.693,388.843 76.603,390.804 75.527 C 392.716 74.477,392.822 73.798,390.923 74.760 C 389.496 75.484,389.507 75.486,389.682 74.553 C 390.003 72.843,389.142 72.718,387.421 74.223 C 385.825 75.620,385.777 75.556,386.927 73.569 C 388.465 70.912,387.085 70.091,384.724 72.257 C 381.844 74.898,381.524 74.966,383.849 72.441 C 384.987 71.206,385.111 70.801,384.459 70.452 C 383.528 69.954,382.540 70.174,381.746 71.056 M105.315 74.411 C 105.505 74.765,105.253 75.029,103.513 76.304 C 101.240 77.970,101.104 77.996,101.786 76.633 C 102.859 74.488,104.727 73.312,105.315 74.411 M131.538 74.411 C 131.727 74.765,131.475 75.029,129.735 76.304 C 127.463 77.970,127.326 77.996,128.008 76.633 C 129.081 74.488,130.950 73.312,131.538 74.411 M249.315 74.411 C 249.505 74.765,249.253 75.029,247.513 76.304 C 245.240 77.970,245.104 77.996,245.786 76.633 C 246.859 74.488,248.727 73.312,249.315 74.411 M275.538 74.411 C 275.727 74.765,275.475 75.029,273.735 76.304 C 271.463 77.970,271.326 77.996,272.008 76.633 C 273.081 74.488,274.950 73.312,275.538 74.411 M309.315 74.411 C 309.505 74.765,309.253 75.029,307.513 76.304 C 305.240 77.970,305.104 77.996,305.786 76.633 C 306.859 74.488,308.727 73.312,309.315 74.411 M347.538 74.411 C 347.727 74.765,347.475 75.029,345.735 76.304 C 343.463 77.970,343.326 77.996,344.008 76.633 C 345.081 74.488,346.950 73.312,347.538 74.411 M371.760 74.411 C 371.949 74.765,371.697 75.029,369.957 76.304 C 367.685 77.970,367.548 77.996,368.230 76.633 C 369.304 74.488,371.172 73.312,371.760 74.411 M184.950 83.114 L 183.701 85.116 183.184 84.631 C 182.359 83.856,182.791 83.157,184.996 81.697 C 186.315 80.824,186.311 80.932,184.950 83.114 M285.980 85.944 C 281.216 92.190,268.944 103.199,262.132 107.337 C 256.459 110.783,250.281 110.185,248.355 106.002 C 247.668 104.509,247.704 100.635,248.422 98.817 C 251.202 91.778,261.606 87.617,280.444 86.010 C 281.972 85.880,283.572 85.740,284.000 85.700 C 286.097 85.502,286.298 85.527,285.980 85.944 " stroke="none" fill="#000000" fill-rule="evenodd"></path></g></svg>